<?xml version="1.0" encoding="UTF-8" standalone="no"?>
<!-- Created with Inkscape (http://www.inkscape.org/) -->

<svg
   width="1024mm"
   height="1024mm"
   viewBox="0 0 1024 1024"
   version="1.1"
   id="svg1"
   xml:space="preserve"
   inkscape:export-filename="icon-384.png"
   inkscape:export-xdpi="9.5249996"
   inkscape:export-ydpi="9.5249996"
   inkscape:version="1.4.2 (f4327f4, 2025-05-13)"
   sodipodi:docname="icon.svg"
   xmlns:inkscape="http://www.inkscape.org/namespaces/inkscape"
   xmlns:sodipodi="http://sodipodi.sourceforge.net/DTD/sodipodi-0.dtd"
   xmlns:xlink="http://www.w3.org/1999/xlink"
   xmlns="http://www.w3.org/2000/svg"
   xmlns:svg="http://www.w3.org/2000/svg"><sodipodi:namedview
     id="namedview1"
     pagecolor="#ffffff"
     bordercolor="#000000"
     borderopacity="0.25"
     inkscape:showpageshadow="2"
     inkscape:pageopacity="0.0"
     inkscape:pagecheckerboard="0"
     inkscape:deskcolor="#d1d1d1"
     inkscape:document-units="mm"
     inkscape:zoom="0.25233411"
     inkscape:cx="1521.7919"
     inkscape:cy="2054.8154"
     inkscape:window-width="2560"
     inkscape:window-height="1351"
     inkscape:window-x="2391"
     inkscape:window-y="-9"
     inkscape:window-maximized="1"
     inkscape:current-layer="layer1" /><defs
     id="defs1"><color-profile
       name="sRGB-IEC61966-2.1"
       xlink:href="../../../../../../../../../../WINDOWS/system32/spool/drivers/color/sRGB%20Color%20Space%20Profile.icm"
       id="color-profile1" /><color-profile
       name="Agfa-:-Swop-Standard"
       xlink:href="../../../../../../../../../../WINDOWS/system32/spool/drivers/color/RSWOP.icm"
       id="color-profile2" /><linearGradient
       id="linearGradient2"
       inkscape:collect="always"><stop
         style="stop-color:#14d9eb;stop-opacity:1;"
         offset="0"
         id="stop2" /><stop
         style="stop-color:#426cbd;stop-opacity:1;"
         offset="1"
         id="stop3" /></linearGradient><linearGradient
       inkscape:collect="always"
       xlink:href="#linearGradient2"
       id="linearGradient3"
       x1="190"
       y1="2580.4263"
       x2="19767.302"
       y2="2580.4263"
       gradientUnits="userSpaceOnUse" /></defs><g
     inkscape:label="Laag 1"
     inkscape:groupmode="layer"
     id="layer1"
     style="display:inline"><g
       transform="matrix(0.03527778,0,0,-0.03527778,159.97522,603.03152)"
       fill="#000000"
       stroke="none"
       id="g4"
       style="fill:url(#linearGradient3);fill-opacity:1"><path
         d="M 7465,5050 C 6613,4999 5868,4592 5428,3935 5166,3545 5038,3105 5037,2595 c 0,-424 73,-747 250,-1096 366,-726 1099,-1237 1964,-1370 119,-19 188,-23 394,-23 272,-1 375,8 605,54 535,107 1019,359 1381,719 141,141 205,219 307,373 140,214 240,439 302,683 56,221 73,368 73,635 1,327 -34,563 -123,832 -243,739 -819,1282 -1616,1523 -325,99 -749,146 -1109,125 z m 722,-1444 c 113,-36 205,-130 247,-256 27,-81 33,-262 12,-385 -83,-484 -488,-1114 -826,-1285 -85,-43 -163,-55 -270,-41 -177,23 -280,90 -344,225 -43,89 -56,153 -56,265 0,360 247,899 563,1228 133,139 243,217 355,254 69,23 237,20 319,-5 z"
         id="path1"
         style="fill:url(#linearGradient3);fill-opacity:1" /><path
         d="m 190,4160 v -760 l 658,-2 657,-3 3,-1593 2,-1592 h 915 915 l 2,1592 3,1593 653,3 652,2 v 760 760 H 2420 190 Z"
         id="path2"
         style="fill:url(#linearGradient3);fill-opacity:1" /><path
         d="M 10910,2570 V 220 h 1745 1745 v 680 680 h -830 -830 v 225 225 h 775 775 v 575 575 h -775 -775 v 195 195 h 780 780 v 675 675 h -1695 -1695 z"
         id="path3"
         style="fill:url(#linearGradient3);fill-opacity:1" /><path
         d="m 17090,5049 c -329,-8 -646,-25 -1085,-60 -283,-22 -782,-65 -857,-75 l -48,-6 V 2564 220 h 965 965 v 424 425 l 343,-6 c 368,-6 452,-1 678,43 763,147 1380,671 1613,1368 109,324 133,754 66,1161 -135,825 -610,1240 -1570,1375 -281,39 -597,51 -1070,39 z m 794,-1239 c 66,-25 136,-96 174,-178 25,-53 27,-66 27,-192 0,-155 -21,-246 -81,-361 -73,-138 -223,-283 -434,-421 -83,-54 -534,-288 -555,-288 -3,0 -4,251 -3,558 l 3,557 115,77 c 134,90 357,207 450,236 36,12 72,23 80,26 42,13 172,5 224,-14 z"
         id="path4"
         style="fill:url(#linearGradient3);fill-opacity:1" /></g></g></svg>
