<?xml version="1.0" encoding="utf-8"?>
<svg version="1.0" xmlns="http://www.w3.org/2000/svg" width="2000.000000pt" height="512.000000pt" viewBox="0 0 2000.000000 512.000000" preserveAspectRatio="xMidYMid meet">
  <g transform="translate(0.000000,512.000000) scale(0.100000,-0.100000)" fill="#000000" stroke="none">
    <path d="M7465 5050 c-852 -51 -1597 -458 -2037 -1115 -262 -390 -390 -830 -391 -1340 0 -424 73 -747 250 -1096 366 -726 1099 -1237 1964 -1370 119 -19 188 -23 394 -23 272 -1 375 8 605 54 535 107 1019 359 1381 719 141 141 205 219 307 373 140 214 240 439 302 683 56 221 73 368 73 635 1 327 -34 563 -123 832 -243 739 -819 1282 -1616 1523 -325 99 -749 146 -1109 125z m722 -1444 c113 -36 205 -130 247 -256 27 -81 33 -262 12 -385 -83 -484 -488 -1114 -826 -1285 -85 -43 -163 -55 -270 -41 -177 23 -280 90 -344 225 -43 89 -56 153 -56 265 0 360 247 899 563 1228 133 139 243 217 355 254 69 23 237 20 319 -5z"/>
    <path d="M190 4160 l0 -760 658 -2 657 -3 3 -1593 2 -1592 915 0 915 0 2 1592 3 1593 653 3 652 2 0 760 0 760 -2230 0 -2230 0 0 -760z"/>
    <path d="M10910 2570 l0 -2350 1745 0 1745 0 0 680 0 680 -830 0 -830 0 0 225 0 225 775 0 775 0 0 575 0 575 -775 0 -775 0 0 195 0 195 780 0 780 0 0 675 0 675 -1695 0 -1695 0 0 -2350z"/>
    <path d="M17090 5049 c-329 -8 -646 -25 -1085 -60 -283 -22 -782 -65 -857 -75 l-48 -6 0 -2344 0 -2344 965 0 965 0 0 424 0 425 343 -6 c368 -6 452 -1 678 43 763 147 1380 671 1613 1368 109 324 133 754 66 1161 -135 825 -610 1240 -1570 1375 -281 39 -597 51 -1070 39z m794 -1239 c66 -25 136 -96 174 -178 25 -53 27 -66 27 -192 0 -155 -21 -246 -81 -361 -73 -138 -223 -283 -434 -421 -83 -54 -534 -288 -555 -288 -3 0 -4 251 -3 558 l3 557 115 77 c134 90 357 207 450 236 36 12 72 23 80 26 42 13 172 5 224 -14z"/>
  </g>
</svg>